<?xml version="1.0" standalone="yes"?>

<svg version="1.1" viewBox="0.0 0.0 377.9527559055118 377.9527559055118" fill="none" stroke="none" stroke-linecap="square" stroke-miterlimit="10" xmlns="http://www.w3.org/2000/svg" xmlns:xlink="http://www.w3.org/1999/xlink"><clipPath id="p.0"><path d="m0 0l377.95276 0l0 377.95276l-377.95276 0l0 -377.95276z" clip-rule="nonzero"></path></clipPath><g clip-path="url(#p.0)"><path fill="#000000" fill-opacity="0.0" d="m0 0l377.95276 0l0 377.95276l-377.95276 0z" fill-rule="nonzero"></path><path fill="#b7b7b7" d="m0.80052495 11.607129l0 0c0 -6.4104404 5.1966887 -11.607129 11.607129 -11.607129l354.7385 0c3.0783997 0 6.030731 1.2228904 8.207489 3.3996494c2.1767578 2.176759 3.3996582 5.129077 3.3996582 8.2074795l0 351.93536c0 6.410431 -5.1967163 11.607117 -11.607147 11.607117l-354.7385 0c-6.4104404 0 -11.607129 -5.196686 -11.607129 -11.607117z" fill-rule="nonzero"></path><path stroke="#666666" stroke-width="2.0" stroke-linejoin="round" stroke-linecap="butt" d="m0.80052495 11.607129l0 0c0 -6.4104404 5.1966887 -11.607129 11.607129 -11.607129l354.7385 0c3.0783997 0 6.030731 1.2228904 8.207489 3.3996494c2.1767578 2.176759 3.3996582 5.129077 3.3996582 8.2074795l0 351.93536c0 6.410431 -5.1967163 11.607117 -11.607147 11.607117l-354.7385 0c-6.4104404 0 -11.607129 -5.196686 -11.607129 -11.607117z" fill-rule="nonzero"></path><path fill="#cfe2f3" d="m22.811024 166.71675l0 0c0 -5.859268 4.749872 -10.609146 10.609135 -10.609146l57.26992 0c2.813713 0 5.512192 1.1177521 7.501793 3.1073456c1.9895935 1.9896088 3.107338 4.68808 3.107338 7.5018005l0 42.435272c0 5.859253 -4.7498703 10.609131 -10.609131 10.609131l-57.26992 0l0 0c-5.8592625 0 -10.609135 -4.749878 -10.609135 -10.609131z" fill-rule="nonzero"></path><path stroke="#000000" stroke-width="1.0" stroke-linejoin="round" stroke-linecap="butt" d="m22.811024 166.71675l0 0c0 -5.859268 4.749872 -10.609146 10.609135 -10.609146l57.26992 0c2.813713 0 5.512192 1.1177521 7.501793 3.1073456c1.9895935 1.9896088 3.107338 4.68808 3.107338 7.5018005l0 42.435272c0 5.859253 -4.7498703 10.609131 -10.609131 10.609131l-57.26992 0l0 0c-5.8592625 0 -10.609135 -4.749878 -10.609135 -10.609131z" fill-rule="nonzero"></path><path fill="#000000" d="m55.9239 180.7375l0 -2.28125l12.515629 0l0 1.84375q-1.859375 1.96875 -3.671875 5.234375q-1.8125 3.25 -2.796875 6.6875q-0.703125 2.421875 -0.90625 5.3125l-2.4375 0q0.03125 -2.28125 0.890625 -5.5q0.859375 -3.234375 2.453125 -6.234375q1.609375 -3.0 3.421875 -5.0625l-9.468754 0z" fill-rule="nonzero"></path><path fill="#cfe2f3" d="m109.24672 166.71675l0 0c0 -5.859268 4.7498703 -10.609146 10.6091385 -10.609146l57.26992 0c2.8137054 0 5.512192 1.1177521 7.5017853 3.1073456c1.9895935 1.9896088 3.1073456 4.68808 3.1073456 7.5018005l0 42.435272c0 5.859253 -4.749878 10.609131 -10.609131 10.609131l-57.26992 0l0 0c-5.859268 0 -10.6091385 -4.749878 -10.6091385 -10.609131z" fill-rule="nonzero"></path><path stroke="#000000" stroke-width="1.0" stroke-linejoin="round" stroke-linecap="butt" d="m109.24672 166.71675l0 0c0 -5.859268 4.7498703 -10.609146 10.6091385 -10.609146l57.26992 0c2.8137054 0 5.512192 1.1177521 7.5017853 3.1073456c1.9895935 1.9896088 3.1073456 4.68808 3.1073456 7.5018005l0 42.435272c0 5.859253 -4.749878 10.609131 -10.609131 10.609131l-57.26992 0l0 0c-5.859268 0 -10.6091385 -4.749878 -10.6091385 -10.609131z" fill-rule="nonzero"></path><path fill="#000000" d="m145.84398 187.05q-1.46875 -0.53125 -2.1875 -1.53125q-0.703125 -1.015625 -0.703125 -2.40625q0 -2.109375 1.515625 -3.546875q1.515625 -1.4375 4.03125 -1.4375q2.53125 0 4.0625 1.46875q1.546875 1.46875 1.546875 3.578125q0 1.34375 -0.703125 2.34375q-0.703125 1.0 -2.140625 1.53125q1.78125 0.578125 2.703125 1.875q0.9375 1.296875 0.9375 3.078125q0 2.484375 -1.75 4.171875q-1.75 1.6875 -4.609375 1.6875q-2.875 0 -4.625 -1.6875q-1.75 -1.703125 -1.75 -4.234375q0 -1.875 0.953125 -3.140625q0.953125 -1.28125 2.71875 -1.75zm-0.46875 -4.015625q0 1.375 0.875 2.25q0.890625 0.859375 2.296875 0.859375q1.375 0 2.25 -0.859375q0.875 -0.875 0.875 -2.125q0 -1.296875 -0.90625 -2.1875q-0.890625 -0.890625 -2.234375 -0.890625q-1.359375 0 -2.265625 0.875q-0.890625 0.859375 -0.890625 2.078125zm-0.765625 8.921875q0 1.015625 0.484375 1.96875q0.484375 0.953125 1.421875 1.46875q0.953125 0.515625 2.046875 0.515625q1.703125 0 2.8125 -1.09375q1.109375 -1.09375 1.109375 -2.78125q0 -1.71875 -1.140625 -2.828125q-1.140625 -1.125 -2.859375 -1.125q-1.671875 0 -2.78125 1.109375q-1.09375 1.109375 -1.09375 2.765625z" fill-rule="nonzero"></path><path fill="#cfe2f3" d="m195.68242 166.71675l0 0c0 -5.859268 4.7498627 -10.609146 10.609131 -10.609146l57.269913 0c2.8137207 0 5.512207 1.1177521 7.5018005 3.1073456c1.9895935 1.9896088 3.1073303 4.68808 3.1073303 7.5018005l0 42.435272c0 5.859253 -4.7498474 10.609131 -10.609131 10.609131l-57.269913 0l0 0c-5.859268 0 -10.609131 -4.749878 -10.609131 -10.609131z" fill-rule="nonzero"></path><path stroke="#000000" stroke-width="1.0" stroke-linejoin="round" stroke-linecap="butt" d="m195.68242 166.71675l0 0c0 -5.859268 4.7498627 -10.609146 10.609131 -10.609146l57.269913 0c2.8137207 0 5.512207 1.1177521 7.5018005 3.1073456c1.9895935 1.9896088 3.1073303 4.68808 3.1073303 7.5018005l0 42.435272c0 5.859253 -4.7498474 10.609131 -10.609131 10.609131l-57.269913 0l0 0c-5.859268 0 -10.609131 -4.749878 -10.609131 -10.609131z" fill-rule="nonzero"></path><path fill="#000000" d="m228.99841 193.06563l2.265625 -0.21875q0.296875 1.609375 1.109375 2.34375q0.828125 0.71875 2.109375 0.71875q1.09375 0 1.90625 -0.5q0.828125 -0.5 1.359375 -1.328125q0.53125 -0.84375 0.875 -2.265625q0.359375 -1.421875 0.359375 -2.90625q0 -0.15625 -0.015625 -0.46875q-0.703125 1.125 -1.9375 1.84375q-1.234375 0.703125 -2.671875 0.703125q-2.40625 0 -4.0625 -1.734375q-1.65625 -1.75 -1.65625 -4.59375q0 -2.953125 1.734375 -4.734375q1.734375 -1.796875 4.34375 -1.796875q1.875 0 3.4375 1.015625q1.5625 1.015625 2.375 2.890625q0.8125 1.875 0.8125 5.4375q0 3.703125 -0.8125 5.90625q-0.796875 2.1875 -2.390625 3.34375q-1.578125 1.140625 -3.71875 1.140625q-2.265625 0 -3.703125 -1.25q-1.4375 -1.265625 -1.71875 -3.546875zm9.703125 -8.53125q0 -2.046875 -1.09375 -3.234375q-1.078125 -1.203125 -2.609375 -1.203125q-1.578125 0 -2.75 1.296875q-1.171875 1.28125 -1.171875 3.34375q0 1.84375 1.109375 3.0q1.109375 1.140625 2.75 1.140625q1.65625 0 2.703125 -1.140625q1.0625 -1.15625 1.0625 -3.203125z" fill-rule="nonzero"></path><path fill="#cfe2f3" d="m22.811024 239.97134l0 0c0 -5.859268 4.749872 -10.609146 10.609135 -10.609146l57.26992 0c2.813713 0 5.512192 1.1177521 7.501793 3.1073456c1.9895935 1.9896088 3.107338 4.68808 3.107338 7.5018005l0 42.435272c0 5.859253 -4.7498703 10.609131 -10.609131 10.609131l-57.26992 0l0 0c-5.8592625 0 -10.609135 -4.749878 -10.609135 -10.609131z" fill-rule="nonzero"></path><path stroke="#000000" stroke-width="1.0" stroke-linejoin="round" stroke-linecap="butt" d="m22.811024 239.97134l0 0c0 -5.859268 4.749872 -10.609146 10.609135 -10.609146l57.26992 0c2.813713 0 5.512192 1.1177521 7.501793 3.1073456c1.9895935 1.9896088 3.107338 4.68808 3.107338 7.5018005l0 42.435272c0 5.859253 -4.7498703 10.609131 -10.609131 10.609131l-57.26992 0l0 0c-5.8592625 0 -10.609135 -4.749878 -10.609135 -10.609131z" fill-rule="nonzero"></path><path fill="#000000" d="m63.37703 270.78897l0 -4.625l-8.390629 0l0 -2.171875l8.812504 -12.53125l1.9375 0l0 12.53125l2.625 0l0 2.171875l-2.625 0l0 4.625l-2.359375 0zm0 -6.796875l0 -8.71875l-6.062504 8.71875l6.062504 0z" fill-rule="nonzero"></path><path fill="#cfe2f3" d="m109.24672 239.97134l0 0c0 -5.859268 4.7498703 -10.609146 10.6091385 -10.609146l57.26992 0c2.8137054 0 5.512192 1.1177521 7.5017853 3.1073456c1.9895935 1.9896088 3.1073456 4.68808 3.1073456 7.5018005l0 42.435272c0 5.859253 -4.749878 10.609131 -10.609131 10.609131l-57.26992 0l0 0c-5.859268 0 -10.6091385 -4.749878 -10.6091385 -10.609131z" fill-rule="nonzero"></path><path stroke="#000000" stroke-width="1.0" stroke-linejoin="round" stroke-linecap="butt" d="m109.24672 239.97134l0 0c0 -5.859268 4.7498703 -10.609146 10.6091385 -10.609146l57.26992 0c2.8137054 0 5.512192 1.1177521 7.5017853 3.1073456c1.9895935 1.9896088 3.1073456 4.68808 3.1073456 7.5018005l0 42.435272c0 5.859253 -4.749878 10.609131 -10.609131 10.609131l-57.26992 0l0 0c-5.859268 0 -10.6091385 -4.749878 -10.6091385 -10.609131z" fill-rule="nonzero"></path><path fill="#000000" d="m142.20335 265.72647l2.484375 -0.21875q0.28125 1.828125 1.28125 2.75q1.015625 0.90625 2.4375 0.90625q1.71875 0 2.90625 -1.28125q1.1875 -1.296875 1.1875 -3.4375q0 -2.03125 -1.140625 -3.203125q-1.140625 -1.171875 -2.984375 -1.171875q-1.15625 0 -2.078125 0.53125q-0.921875 0.515625 -1.453125 1.34375l-2.21875 -0.296875l1.875 -9.921875l9.609375 0l0 2.265625l-7.71875 0l-1.046875 5.1875q1.75 -1.203125 3.65625 -1.203125q2.53125 0 4.265625 1.75q1.75 1.75 1.75 4.515625q0 2.625 -1.53125 4.53125q-1.859375 2.34375 -5.078125 2.34375q-2.640625 0 -4.3125 -1.46875q-1.65625 -1.484375 -1.890625 -3.921875z" fill-rule="nonzero"></path><path fill="#cfe2f3" d="m195.68242 239.97134l0 0c0 -5.859268 4.7498627 -10.609146 10.609131 -10.609146l57.269913 0c2.8137207 0 5.512207 1.1177521 7.5018005 3.1073456c1.9895935 1.9896088 3.1073303 4.68808 3.1073303 7.5018005l0 42.435272c0 5.859253 -4.7498474 10.609131 -10.609131 10.609131l-57.269913 0l0 0c-5.859268 0 -10.609131 -4.749878 -10.609131 -10.609131z" fill-rule="nonzero"></path><path stroke="#000000" stroke-width="1.0" stroke-linejoin="round" stroke-linecap="butt" d="m195.68242 239.97134l0 0c0 -5.859268 4.7498627 -10.609146 10.609131 -10.609146l57.269913 0c2.8137207 0 5.512207 1.1177521 7.5018005 3.1073456c1.9895935 1.9896088 3.1073303 4.68808 3.1073303 7.5018005l0 42.435272c0 5.859253 -4.7498474 10.609131 -10.609131 10.609131l-57.269913 0l0 0c-5.859268 0 -10.609131 -4.749878 -10.609131 -10.609131z" fill-rule="nonzero"></path><path fill="#000000" d="m240.95154 256.19522l-2.359375 0.1875q-0.3125 -1.40625 -0.90625 -2.03125q-0.953125 -1.015625 -2.359375 -1.015625q-1.140625 0 -2.0 0.625q-1.125 0.828125 -1.765625 2.390625q-0.640625 1.5625 -0.671875 4.46875q0.859375 -1.296875 2.09375 -1.921875q1.234375 -0.640625 2.59375 -0.640625q2.375 0 4.046875 1.75q1.671875 1.734375 1.671875 4.5q0 1.828125 -0.796875 3.390625q-0.78125 1.5625 -2.15625 2.390625q-1.359375 0.828125 -3.109375 0.828125q-2.953125 0 -4.828125 -2.171875q-1.875 -2.1875 -1.875 -7.203125q0 -5.59375 2.0625 -8.140625q1.8125 -2.21875 4.875 -2.21875q2.28125 0 3.734375 1.28125q1.453125 1.28125 1.75 3.53125zm-9.6875 8.328125q0 1.234375 0.515625 2.359375q0.515625 1.109375 1.453125 1.703125q0.9375 0.578125 1.96875 0.578125q1.5 0 2.578125 -1.203125q1.078125 -1.21875 1.078125 -3.296875q0 -2.015625 -1.0625 -3.15625q-1.0625 -1.15625 -2.6875 -1.15625q-1.609375 0 -2.734375 1.15625q-1.109375 1.140625 -1.109375 3.015625z" fill-rule="nonzero"></path><path fill="#cfe2f3" d="m22.811024 313.22592l0 0c0 -5.859253 4.749872 -10.609131 10.609135 -10.609131l57.26992 0c2.813713 0 5.512192 1.1177673 7.501793 3.1073608c1.9895935 1.9895935 3.107338 4.6880493 3.107338 7.50177l0 42.435272c0 5.8592834 -4.7498703 10.609161 -10.609131 10.609161l-57.26992 0l0 0c-5.8592625 0 -10.609135 -4.749878 -10.609135 -10.609161z" fill-rule="nonzero"></path><path stroke="#000000" stroke-width="1.0" stroke-linejoin="round" stroke-linecap="butt" d="m22.811024 313.22592l0 0c0 -5.859253 4.749872 -10.609131 10.609135 -10.609131l57.26992 0c2.813713 0 5.512192 1.1177673 7.501793 3.1073608c1.9895935 1.9895935 3.107338 4.6880493 3.107338 7.50177l0 42.435272c0 5.8592834 -4.7498703 10.609161 -10.609131 10.609161l-57.26992 0l0 0c-5.8592625 0 -10.609135 -4.749878 -10.609135 -10.609161z" fill-rule="nonzero"></path><path fill="#000000" d="m64.705154 344.04358l-2.375 0l0 -15.125q-0.859375 0.828125 -2.25 1.640625q-1.390625 0.8125 -2.5000038 1.21875l0 -2.296875q2.0000038 -0.921875 3.4843788 -2.25q1.484375 -1.34375 2.109375 -2.59375l1.53125 0l0 19.40625z" fill-rule="nonzero"></path><path fill="#cfe2f3" d="m109.24672 313.22592l0 0c0 -5.859253 4.7498703 -10.609131 10.6091385 -10.609131l57.26992 0c2.8137054 0 5.512192 1.1177673 7.5017853 3.1073608c1.9895935 1.9895935 3.1073456 4.6880493 3.1073456 7.50177l0 42.435272c0 5.8592834 -4.749878 10.609161 -10.609131 10.609161l-57.26992 0l0 0c-5.859268 0 -10.6091385 -4.749878 -10.6091385 -10.609161z" fill-rule="nonzero"></path><path stroke="#000000" stroke-width="1.0" stroke-linejoin="round" stroke-linecap="butt" d="m109.24672 313.22592l0 0c0 -5.859253 4.7498703 -10.609131 10.6091385 -10.609131l57.26992 0c2.8137054 0 5.512192 1.1177673 7.5017853 3.1073608c1.9895935 1.9895935 3.1073456 4.6880493 3.1073456 7.50177l0 42.435272c0 5.8592834 -4.749878 10.609161 -10.609131 10.609161l-57.26992 0l0 0c-5.859268 0 -10.6091385 -4.749878 -10.6091385 -10.609161z" fill-rule="nonzero"></path><path fill="#000000" d="m154.6721 341.76233l0 2.28125l-12.78125 0q-0.015625 -0.859375 0.28125 -1.640625q0.484375 -1.3125 1.5625 -2.578125q1.078125 -1.265625 3.109375 -2.921875q3.140625 -2.59375 4.25 -4.09375q1.109375 -1.515625 1.109375 -2.859375q0 -1.40625 -1.015625 -2.375q-1.0 -0.96875 -2.625 -0.96875q-1.703125 0 -2.734375 1.03125q-1.03125 1.015625 -1.046875 2.84375l-2.4375 -0.25q0.25 -2.734375 1.875 -4.15625q1.640625 -1.4375 4.40625 -1.4375q2.78125 0 4.390625 1.546875q1.625 1.53125 1.625 3.8125q0 1.171875 -0.484375 2.296875q-0.46875 1.109375 -1.5625 2.359375q-1.09375 1.234375 -3.65625 3.390625q-2.140625 1.796875 -2.75 2.4375q-0.59375 0.640625 -1.0 1.28125l9.484375 0z" fill-rule="nonzero"></path><path fill="#cfe2f3" d="m195.68242 313.22592l0 0c0 -5.859253 4.7498627 -10.609131 10.609131 -10.609131l57.269913 0c2.8137207 0 5.512207 1.1177673 7.5018005 3.1073608c1.9895935 1.9895935 3.1073303 4.6880493 3.1073303 7.50177l0 42.435272c0 5.8592834 -4.7498474 10.609161 -10.609131 10.609161l-57.269913 0l0 0c-5.859268 0 -10.609131 -4.749878 -10.609131 -10.609161z" fill-rule="nonzero"></path><path stroke="#000000" stroke-width="1.0" stroke-linejoin="round" stroke-linecap="butt" d="m195.68242 313.22592l0 0c0 -5.859253 4.7498627 -10.609131 10.609131 -10.609131l57.269913 0c2.8137207 0 5.512207 1.1177673 7.5018005 3.1073608c1.9895935 1.9895935 3.1073303 4.6880493 3.1073303 7.50177l0 42.435272c0 5.8592834 -4.7498474 10.609161 -10.609131 10.609161l-57.269913 0l0 0c-5.859268 0 -10.609131 -4.749878 -10.609131 -10.609161z" fill-rule="nonzero"></path><path fill="#000000" d="m228.65466 338.9342l2.359375 -0.3125q0.421875 2.015625 1.390625 2.90625q0.984375 0.890625 2.40625 0.890625q1.671875 0 2.8125 -1.15625q1.15625 -1.15625 1.15625 -2.875q0 -1.640625 -1.0625 -2.6875q-1.0625 -1.0625 -2.71875 -1.0625q-0.671875 0 -1.671875 0.25l0.265625 -2.078125q0.234375 0.03125 0.375 0.03125q1.515625 0 2.734375 -0.78125q1.21875 -0.796875 1.21875 -2.453125q0 -1.296875 -0.890625 -2.15625q-0.875 -0.859375 -2.28125 -0.859375q-1.375 0 -2.296875 0.875q-0.921875 0.859375 -1.1875 2.609375l-2.375 -0.421875q0.4375 -2.390625 1.96875 -3.703125q1.546875 -1.3125 3.84375 -1.3125q1.578125 0 2.90625 0.6875q1.34375 0.671875 2.046875 1.84375q0.703125 1.171875 0.703125 2.484375q0 1.265625 -0.671875 2.296875q-0.671875 1.015625 -2.0 1.625q1.71875 0.390625 2.671875 1.640625q0.953125 1.25 0.953125 3.125q0 2.53125 -1.859375 4.296875q-1.84375 1.75 -4.65625 1.75q-2.546875 0 -4.234375 -1.515625q-1.671875 -1.515625 -1.90625 -3.9375z" fill-rule="nonzero"></path><path fill="#cfe2f3" d="m282.1181 165.09995l0 0c0 -5.859253 4.749878 -10.609131 10.609131 -10.609131l57.269928 0c2.8137207 0 5.512207 1.1177521 7.5018005 3.1073456c1.9895935 1.9895935 3.1073303 4.6880646 3.1073303 7.5017853l0 42.435272c0 5.859268 -4.749878 10.609146 -10.609131 10.609146l-57.269928 0l0 0c-5.859253 0 -10.609131 -4.749878 -10.609131 -10.609146z" fill-rule="nonzero"></path><path stroke="#000000" stroke-width="1.0" stroke-linejoin="round" stroke-linecap="butt" d="m282.1181 165.09995l0 0c0 -5.859253 4.749878 -10.609131 10.609131 -10.609131l57.269928 0c2.8137207 0 5.512207 1.1177521 7.5018005 3.1073456c1.9895935 1.9895935 3.1073303 4.6880646 3.1073303 7.5017853l0 42.435272c0 5.859268 -4.749878 10.609146 -10.609131 10.609146l-57.269928 0l0 0c-5.859253 0 -10.609131 -4.749878 -10.609131 -10.609146z" fill-rule="nonzero"></path><path fill="#000000" d="m315.231 179.12071l0 -2.28125l12.515625 0l0 1.84375q-1.859375 1.96875 -3.671875 5.234375q-1.8125 3.25 -2.796875 6.6875q-0.703125 2.421875 -0.90625 5.3125l-2.4375 0q0.03125 -2.28125 0.890625 -5.5q0.859375 -3.234375 2.453125 -6.234375q1.609375 -3.0 3.421875 -5.0625l-9.46875 0z" fill-rule="nonzero"></path><path fill="#cfe2f3" d="m282.1181 242.44383l0 0c0 -7.224777 5.856842 -13.0816345 13.0816345 -13.0816345l52.32492 0l0 0c3.4694824 0 6.7968445 1.3782501 9.250122 3.8315277c2.4532776 2.4532776 3.8315125 5.7806396 3.8315125 9.250107l0 110.75014c0 7.224762 -5.856842 13.0816345 -13.0816345 13.0816345l-52.32492 0c-7.2247925 0 -13.0816345 -5.8568726 -13.0816345 -13.0816345z" fill-rule="nonzero"></path><path stroke="#000000" stroke-width="1.0" stroke-linejoin="round" stroke-linecap="butt" d="m282.1181 242.44383l0 0c0 -7.224777 5.856842 -13.0816345 13.0816345 -13.0816345l52.32492 0l0 0c3.4694824 0 6.7968445 1.3782501 9.250122 3.8315277c2.4532776 2.4532776 3.8315125 5.7806396 3.8315125 9.250107l0 110.75014c0 7.224762 -5.856842 13.0816345 -13.0816345 13.0816345l-52.32492 0c-7.2247925 0 -13.0816345 -5.8568726 -13.0816345 -13.0816345z" fill-rule="nonzero"></path><path fill="#000000" d="m300.53653 307.41888l0 -19.328125l13.96875 0l0 2.28125l-11.421875 0l0 5.921875l10.703125 0l0 2.265625l-10.703125 0l0 6.578125l11.875 0l0 2.28125l-14.421875 0zm15.8420105 0l5.109375 -7.28125l-4.734375 -6.71875l2.96875 0l2.15625 3.28125q0.59375 0.9375 0.96875 1.5625q0.578125 -0.859375 1.0625 -1.53125l2.359375 -3.3125l2.84375 0l-4.84375 6.59375l5.203125 7.40625l-2.90625 0l-2.875 -4.34375l-0.765625 -1.1875l-3.671875 5.53125l-2.875 0zm24.484375 -4.515625l2.453125 0.3125q-0.578125 2.140625 -2.15625 3.328125q-1.5625 1.1875 -4.0 1.1875q-3.0625 0 -4.875 -1.890625q-1.796875 -1.890625 -1.796875 -5.296875q0 -3.546875 1.8125 -5.484375q1.828125 -1.953125 4.734375 -1.953125q2.8125 0 4.578125 1.90625q1.78125 1.90625 1.78125 5.375q0 0.21875 -0.015625 0.640625l-10.4375 0q0.140625 2.296875 1.3125 3.53125q1.171875 1.21875 2.921875 1.21875q1.3125 0 2.234375 -0.671875q0.921875 -0.6875 1.453125 -2.203125zm-7.78125 -3.828125l7.8125 0q-0.15625 -1.765625 -0.890625 -2.65625q-1.140625 -1.359375 -2.953125 -1.359375q-1.625 0 -2.75 1.09375q-1.109375 1.09375 -1.21875 2.921875z" fill-rule="nonzero"></path><path fill="#ffe599" d="m22.811024 23.199675l0 0c0 -5.528755 4.481943 -10.010698 10.0107 -10.010698l318.18332 0c2.6550293 0 5.2012634 1.0546961 7.078644 2.932066c1.8773804 1.8773708 2.9320679 4.4236298 2.9320679 7.0786324l0 40.041595c0 5.528759 -4.4819336 10.0107 -10.010712 10.0107l-318.18332 0c-5.528757 0 -10.0107 -4.481941 -10.0107 -10.0107z" fill-rule="nonzero"></path><path stroke="#666666" stroke-width="2.0" stroke-linejoin="round" stroke-linecap="butt" d="m22.811024 23.199675l0 0c0 -5.528755 4.481943 -10.010698 10.0107 -10.010698l318.18332 0c2.6550293 0 5.2012634 1.0546961 7.078644 2.932066c1.8773804 1.8773708 2.9320679 4.4236298 2.9320679 7.0786324l0 40.041595c0 5.528759 -4.4819336 10.0107 -10.010712 10.0107l-318.18332 0c-5.528757 0 -10.0107 -4.481941 -10.0107 -10.0107z" fill-rule="nonzero"></path><path fill="#000000" d="m63.1306 47.22922l2.109375 -0.28125q0.359375 1.78125 1.234375 2.578125q0.875 0.796875 2.125 0.796875q1.484375 0 2.5 -1.03125q1.03125 -1.03125 1.03125 -2.5625q0 -1.453125 -0.953125 -2.390625q-0.9375 -0.953125 -2.40625 -0.953125q-0.59375 0 -1.484375 0.234375l0.234375 -1.84375q0.203125 0.015625 0.34375 0.015625q1.34375 0 2.421875 -0.703125q1.078125 -0.703125 1.078125 -2.15625q0 -1.171875 -0.796875 -1.921875q-0.78125 -0.765625 -2.015625 -0.765625q-1.234375 0 -2.0625 0.78125q-0.8125 0.765625 -1.046875 2.3125l-2.109375 -0.375q0.390625 -2.125 1.75 -3.28125q1.375 -1.171875 3.421875 -1.171875q1.40625 0 2.578125 0.609375q1.1875 0.59375 1.8125 1.640625q0.640625 1.046875 0.640625 2.21875q0 1.109375 -0.609375 2.03125q-0.59375 0.90625 -1.765625 1.4375q1.53125 0.359375 2.375 1.46875q0.84375 1.109375 0.84375 2.765625q0 2.25 -1.640625 3.828125q-1.640625 1.5625 -4.15625 1.5625q-2.265625 0 -3.765625 -1.34375q-1.484375 -1.359375 -1.6875 -3.5zm14.472656 4.53125l0 -2.40625l2.390625 0l0 2.40625q0 1.328125 -0.46875 2.140625q-0.46875 0.8125 -1.484375 1.265625l-0.578125 -0.90625q0.65625 -0.296875 0.96875 -0.875q0.328125 -0.5625 0.359375 -1.625l-1.1875 0zm13.464844 0l-2.109375 0l0 -13.4375q-0.75 0.71875 -2.0 1.453125q-1.234375 0.71875 -2.21875 1.078125l0 -2.03125q1.78125 -0.828125 3.09375 -2.015625q1.328125 -1.1875 1.875 -2.296875l1.359375 0l0 17.25zm12.175781 0l0 -4.109375l-7.453125 0l0 -1.9375l7.828125 -11.140625l1.734375 0l0 11.140625l2.3125 0l0 1.9375l-2.3125 0l0 4.109375l-2.109375 0zm0 -6.046875l0 -7.75l-5.390625 7.75l5.390625 0zm14.519531 6.046875l-2.109375 0l0 -13.4375q-0.75 0.71875 -2.0 1.453125q-1.234375 0.71875 -2.21875 1.078125l0 -2.03125q1.78125 -0.828125 3.09375 -2.015625q1.328125 -1.1875 1.875 -2.296875l1.359375 0l0 17.25zm5.4101562 -4.5l2.21875 -0.1875q0.234375 1.609375 1.125 2.4375q0.90625 0.8125 2.171875 0.8125q1.53125 0 2.578125 -1.140625q1.0625 -1.15625 1.0625 -3.0625q0 -1.796875 -1.015625 -2.84375q-1.015625 -1.046875 -2.65625 -1.046875q-1.015625 0 -1.84375 0.46875q-0.8125 0.453125 -1.28125 1.203125l-1.984375 -0.265625l1.65625 -8.828125l8.546875 0l0 2.015625l-6.859375 0l-0.921875 4.625q1.546875 -1.078125 3.25 -1.078125q2.25 0 3.796875 1.5625q1.546875 1.546875 1.546875 4.0q0 2.328125 -1.359375 4.03125q-1.65625 2.09375 -4.515625 2.09375q-2.34375 0 -3.828125 -1.3125q-1.484375 -1.3125 -1.6875 -3.484375zm13.660156 0.53125l2.03125 -0.1875q0.25 1.421875 0.96875 2.078125q0.734375 0.640625 1.875 0.640625q0.96875 0 1.703125 -0.4375q0.734375 -0.453125 1.203125 -1.203125q0.46875 -0.75 0.78125 -2.015625q0.328125 -1.265625 0.328125 -2.578125q0 -0.140625 -0.015625 -0.421875q-0.640625 1.015625 -1.734375 1.640625q-1.09375 0.625 -2.375 0.625q-2.125 0 -3.609375 -1.546875q-1.46875 -1.546875 -1.46875 -4.078125q0 -2.609375 1.53125 -4.203125q1.546875 -1.59375 3.875 -1.59375q1.671875 0 3.0625 0.90625q1.390625 0.890625 2.109375 2.5625q0.71875 1.671875 0.71875 4.84375q0 3.28125 -0.71875 5.234375q-0.71875 1.953125 -2.125 2.984375q-1.40625 1.015625 -3.3125 1.015625q-2.015625 0 -3.296875 -1.125q-1.265625 -1.125 -1.53125 -3.140625zm8.640625 -7.59375q0 -1.8125 -0.96875 -2.875q-0.96875 -1.0625 -2.328125 -1.0625q-1.40625 0 -2.453125 1.15625q-1.03125 1.140625 -1.03125 2.96875q0 1.640625 0.984375 2.671875q0.984375 1.015625 2.4375 1.015625q1.46875 0 2.40625 -1.015625q0.953125 -1.03125 0.953125 -2.859375zm15.472656 9.53125l0 2.03125l-11.34375 0q-0.03125 -0.765625 0.234375 -1.46875q0.4375 -1.15625 1.390625 -2.28125q0.953125 -1.125 2.765625 -2.609375q2.796875 -2.296875 3.78125 -3.625q0.984375 -1.34375 0.984375 -2.546875q0 -1.25 -0.90625 -2.109375q-0.890625 -0.859375 -2.328125 -0.859375q-1.515625 0 -2.4375 0.921875q-0.90625 0.90625 -0.921875 2.515625l-2.171875 -0.21875q0.21875 -2.421875 1.671875 -3.6875q1.453125 -1.28125 3.90625 -1.28125q2.46875 0 3.90625 1.375q1.453125 1.359375 1.453125 3.390625q0 1.03125 -0.421875 2.03125q-0.421875 1.0 -1.40625 2.109375q-0.96875 1.09375 -3.25 3.015625q-1.890625 1.59375 -2.4375 2.15625q-0.53125 0.5625 -0.890625 1.140625l8.421875 0zm13.207031 -10.9375l-2.09375 0.15625q-0.28125 -1.234375 -0.796875 -1.796875q-0.859375 -0.90625 -2.109375 -0.90625q-1.0 0 -1.765625 0.5625q-1.0 0.71875 -1.578125 2.125q-0.5625 1.390625 -0.59375 3.96875q0.765625 -1.15625 1.859375 -1.71875q1.109375 -0.5625 2.3125 -0.5625q2.109375 0 3.59375 1.546875q1.484375 1.546875 1.484375 4.015625q0 1.609375 -0.703125 3.0q-0.6875 1.390625 -1.90625 2.140625q-1.21875 0.734375 -2.765625 0.734375q-2.640625 0 -4.3125 -1.9375q-1.65625 -1.953125 -1.65625 -6.40625q0 -4.96875 1.84375 -7.234375q1.59375 -1.96875 4.3125 -1.96875q2.03125 0 3.328125 1.140625q1.296875 1.125 1.546875 3.140625zm-8.609375 7.40625q0 1.078125 0.453125 2.078125q0.46875 1.0 1.296875 1.53125q0.84375 0.515625 1.75 0.515625q1.34375 0 2.296875 -1.078125q0.96875 -1.078125 0.96875 -2.9375q0 -1.78125 -0.953125 -2.796875q-0.953125 -1.03125 -2.390625 -1.03125q-1.421875 0 -2.421875 1.03125q-1.0 1.015625 -1.0 2.6875zm11.019531 1.0625l2.21875 -0.1875q0.234375 1.609375 1.125 2.4375q0.90625 0.8125 2.171875 0.8125q1.53125 0 2.578125 -1.140625q1.0625 -1.15625 1.0625 -3.0625q0 -1.796875 -1.015625 -2.84375q-1.015625 -1.046875 -2.65625 -1.046875q-1.015625 0 -1.84375 0.46875q-0.8125 0.453125 -1.28125 1.203125l-1.984375 -0.265625l1.65625 -8.828125l8.546875 0l0 2.015625l-6.859375 0l-0.921875 4.625q1.546875 -1.078125 3.25 -1.078125q2.25 0 3.796875 1.5625q1.546875 1.546875 1.546875 4.0q0 2.328125 -1.359375 4.03125q-1.65625 2.09375 -4.515625 2.09375q-2.34375 0 -3.828125 -1.3125q-1.484375 -1.3125 -1.6875 -3.484375zm13.363281 -0.03125l2.109375 -0.28125q0.359375 1.78125 1.234375 2.578125q0.875 0.796875 2.125 0.796875q1.484375 0 2.5 -1.03125q1.03125 -1.03125 1.03125 -2.5625q0 -1.453125 -0.953125 -2.390625q-0.9375 -0.953125 -2.40625 -0.953125q-0.59375 0 -1.484375 0.234375l0.234375 -1.84375q0.203125 0.015625 0.34375 0.015625q1.34375 0 2.421875 -0.703125q1.078125 -0.703125 1.078125 -2.15625q0 -1.171875 -0.796875 -1.921875q-0.78125 -0.765625 -2.015625 -0.765625q-1.234375 0 -2.0625 0.78125q-0.8125 0.765625 -1.046875 2.3125l-2.109375 -0.375q0.390625 -2.125 1.75 -3.28125q1.375 -1.171875 3.421875 -1.171875q1.40625 0 2.578125 0.609375q1.1875 0.59375 1.8125 1.640625q0.640625 1.046875 0.640625 2.21875q0 1.109375 -0.609375 2.03125q-0.59375 0.90625 -1.765625 1.4375q1.53125 0.359375 2.375 1.46875q0.84375 1.109375 0.84375 2.765625q0 2.25 -1.640625 3.828125q-1.640625 1.5625 -4.15625 1.5625q-2.265625 0 -3.765625 -1.34375q-1.484375 -1.359375 -1.6875 -3.5zm13.332031 0.03125l2.21875 -0.1875q0.234375 1.609375 1.125 2.4375q0.90625 0.8125 2.171875 0.8125q1.53125 0 2.578125 -1.140625q1.0625 -1.15625 1.0625 -3.0625q0 -1.796875 -1.015625 -2.84375q-1.015625 -1.046875 -2.65625 -1.046875q-1.015625 0 -1.84375 0.46875q-0.8125 0.453125 -1.28125 1.203125l-1.984375 -0.265625l1.65625 -8.828125l8.546875 0l0 2.015625l-6.859375 0l-0.921875 4.625q1.546875 -1.078125 3.25 -1.078125q2.25 0 3.796875 1.5625q1.546875 1.546875 1.546875 4.0q0 2.328125 -1.359375 4.03125q-1.65625 2.09375 -4.515625 2.09375q-2.34375 0 -3.828125 -1.3125q-1.484375 -1.3125 -1.6875 -3.484375zm16.597656 -4.8125q-1.3125 -0.484375 -1.953125 -1.375q-0.625 -0.890625 -0.625 -2.140625q0 -1.875 1.34375 -3.140625q1.34375 -1.28125 3.578125 -1.28125q2.25 0 3.625 1.3125q1.375 1.296875 1.375 3.171875q0 1.203125 -0.625 2.09375q-0.625 0.875 -1.90625 1.359375q1.578125 0.515625 2.40625 1.671875q0.828125 1.140625 0.828125 2.734375q0 2.203125 -1.5625 3.703125q-1.5625 1.5 -4.09375 1.5q-2.546875 0 -4.109375 -1.5q-1.5625 -1.515625 -1.5625 -3.765625q0 -1.671875 0.84375 -2.796875q0.859375 -1.140625 2.4375 -1.546875zm-0.421875 -3.578125q0 1.21875 0.78125 2.0q0.78125 0.765625 2.03125 0.765625q1.21875 0 2.0 -0.765625q0.78125 -0.765625 0.78125 -1.890625q0 -1.15625 -0.8125 -1.9375q-0.796875 -0.796875 -1.984375 -0.796875q-1.203125 0 -2.0 0.78125q-0.796875 0.765625 -0.796875 1.84375zm-0.6875 7.9375q0 0.890625 0.421875 1.734375q0.4375 0.84375 1.28125 1.3125q0.84375 0.46875 1.8125 0.46875q1.515625 0 2.5 -0.96875q0.984375 -0.984375 0.984375 -2.484375q0 -1.515625 -1.015625 -2.515625q-1.015625 -1.0 -2.53125 -1.0q-1.5 0 -2.484375 0.984375q-0.96875 0.984375 -0.96875 2.46875zm11.519531 0.984375l2.03125 -0.1875q0.25 1.421875 0.96875 2.078125q0.734375 0.640625 1.875 0.640625q0.96875 0 1.703125 -0.4375q0.734375 -0.453125 1.203125 -1.203125q0.46875 -0.75 0.78125 -2.015625q0.328125 -1.265625 0.328125 -2.578125q0 -0.140625 -0.015625 -0.421875q-0.640625 1.015625 -1.734375 1.640625q-1.09375 0.625 -2.375 0.625q-2.125 0 -3.609375 -1.546875q-1.46875 -1.546875 -1.46875 -4.078125q0 -2.609375 1.53125 -4.203125q1.546875 -1.59375 3.875 -1.59375q1.671875 0 3.0625 0.90625q1.390625 0.890625 2.109375 2.5625q0.71875 1.671875 0.71875 4.84375q0 3.28125 -0.71875 5.234375q-0.71875 1.953125 -2.125 2.984375q-1.40625 1.015625 -3.3125 1.015625q-2.015625 0 -3.296875 -1.125q-1.265625 -1.125 -1.53125 -3.140625zm8.640625 -7.59375q0 -1.8125 -0.96875 -2.875q-0.96875 -1.0625 -2.328125 -1.0625q-1.40625 0 -2.453125 1.15625q-1.03125 1.140625 -1.03125 2.96875q0 1.640625 0.984375 2.671875q0.984375 1.015625 2.4375 1.015625q1.46875 0 2.40625 -1.015625q0.953125 -1.03125 0.953125 -2.859375zm4.5351562 -3.375l0 -2.015625l11.125 0l0 1.640625q-1.640625 1.734375 -3.265625 4.640625q-1.609375 2.890625 -2.484375 5.953125q-0.625 2.15625 -0.8125 4.71875l-2.15625 0q0.03125 -2.03125 0.78125 -4.890625q0.765625 -2.875 2.1875 -5.546875q1.4375 -2.671875 3.03125 -4.5l-8.40625 0zm13.519516 10.96875l2.03125 -0.1875q0.25 1.421875 0.96875 2.078125q0.734375 0.640625 1.875 0.640625q0.96875 0 1.703125 -0.4375q0.734375 -0.453125 1.203125 -1.203125q0.46875 -0.75 0.78125 -2.015625q0.328125 -1.265625 0.328125 -2.578125q0 -0.140625 -0.015625 -0.421875q-0.640625 1.015625 -1.734375 1.640625q-1.09375 0.625 -2.375 0.625q-2.125 0 -3.609375 -1.546875q-1.46875 -1.546875 -1.46875 -4.078125q0 -2.609375 1.53125 -4.203125q1.546875 -1.59375 3.875 -1.59375q1.671875 0 3.0625 0.90625q1.390625 0.890625 2.109375 2.5625q0.71875 1.671875 0.71875 4.84375q0 3.28125 -0.71875 5.234375q-0.71875 1.953125 -2.125 2.984375q-1.40625 1.015625 -3.3125 1.015625q-2.015625 0 -3.296875 -1.125q-1.265625 -1.125 -1.53125 -3.140625zm8.640625 -7.59375q0 -1.8125 -0.96875 -2.875q-0.96875 -1.0625 -2.328125 -1.0625q-1.40625 0 -2.453125 1.15625q-1.03125 1.140625 -1.03125 2.96875q0 1.640625 0.984375 2.671875q0.984375 1.015625 2.4375 1.015625q1.46875 0 2.40625 -1.015625q0.953125 -1.03125 0.953125 -2.859375zm4.4101562 7.03125l2.109375 -0.28125q0.359375 1.78125 1.234375 2.578125q0.875 0.796875 2.125 0.796875q1.484375 0 2.5 -1.03125q1.03125 -1.03125 1.03125 -2.5625q0 -1.453125 -0.953125 -2.390625q-0.9375 -0.953125 -2.40625 -0.953125q-0.59375 0 -1.484375 0.234375l0.234375 -1.84375q0.203125 0.015625 0.34375 0.015625q1.34375 0 2.421875 -0.703125q1.078125 -0.703125 1.078125 -2.15625q0 -1.171875 -0.796875 -1.921875q-0.78125 -0.765625 -2.015625 -0.765625q-1.234375 0 -2.0625 0.78125q-0.8125 0.765625 -1.046875 2.3125l-2.109375 -0.375q0.390625 -2.125 1.75 -3.28125q1.375 -1.171875 3.421875 -1.171875q1.40625 0 2.578125 0.609375q1.1875 0.59375 1.8125 1.640625q0.640625 1.046875 0.640625 2.21875q0 1.109375 -0.609375 2.03125q-0.59375 0.90625 -1.765625 1.4375q1.53125 0.359375 2.375 1.46875q0.84375 1.109375 0.84375 2.765625q0 2.25 -1.640625 3.828125q-1.640625 1.5625 -4.15625 1.5625q-2.265625 0 -3.765625 -1.34375q-1.484375 -1.359375 -1.6875 -3.5zm24.410156 2.5l0 2.03125l-11.34375 0q-0.03125 -0.765625 0.234375 -1.46875q0.4375 -1.15625 1.390625 -2.28125q0.953125 -1.125 2.765625 -2.609375q2.796875 -2.296875 3.78125 -3.625q0.984375 -1.34375 0.984375 -2.546875q0 -1.25 -0.90625 -2.109375q-0.890625 -0.859375 -2.328125 -0.859375q-1.515625 0 -2.4375 0.921875q-0.90625 0.90625 -0.921875 2.515625l-2.171875 -0.21875q0.21875 -2.421875 1.671875 -3.6875q1.453125 -1.28125 3.90625 -1.28125q2.46875 0 3.90625 1.375q1.453125 1.359375 1.453125 3.390625q0 1.03125 -0.421875 2.03125q-0.421875 1.0 -1.40625 2.109375q-0.96875 1.09375 -3.25 3.015625q-1.890625 1.59375 -2.4375 2.15625q-0.53125 0.5625 -0.890625 1.140625l8.421875 0zm2.2851562 -2.5l2.109375 -0.28125q0.359375 1.78125 1.234375 2.578125q0.875 0.796875 2.125 0.796875q1.484375 0 2.5 -1.03125q1.03125 -1.03125 1.03125 -2.5625q0 -1.453125 -0.953125 -2.390625q-0.9375 -0.953125 -2.40625 -0.953125q-0.59375 0 -1.484375 0.234375l0.234375 -1.84375q0.203125 0.015625 0.34375 0.015625q1.34375 0 2.421875 -0.703125q1.078125 -0.703125 1.078125 -2.15625q0 -1.171875 -0.796875 -1.921875q-0.78125 -0.765625 -2.015625 -0.765625q-1.234375 0 -2.0625 0.78125q-0.8125 0.765625 -1.046875 2.3125l-2.109375 -0.375q0.390625 -2.125 1.75 -3.28125q1.375 -1.171875 3.421875 -1.171875q1.40625 0 2.578125 0.609375q1.1875 0.59375 1.8125 1.640625q0.640625 1.046875 0.640625 2.21875q0 1.109375 -0.609375 2.03125q-0.59375 0.90625 -1.765625 1.4375q1.53125 0.359375 2.375 1.46875q0.84375 1.109375 0.84375 2.765625q0 2.25 -1.640625 3.828125q-1.640625 1.5625 -4.15625 1.5625q-2.265625 0 -3.765625 -1.34375q-1.484375 -1.359375 -1.6875 -3.5zm16.582031 -4.78125q-1.3125 -0.484375 -1.953125 -1.375q-0.625 -0.890625 -0.625 -2.140625q0 -1.875 1.34375 -3.140625q1.34375 -1.28125 3.578125 -1.28125q2.25 0 3.625 1.3125q1.375 1.296875 1.375 3.171875q0 1.203125 -0.625 2.09375q-0.625 0.875 -1.90625 1.359375q1.578125 0.515625 2.40625 1.671875q0.828125 1.140625 0.828125 2.734375q0 2.203125 -1.5625 3.703125q-1.5625 1.5 -4.09375 1.5q-2.546875 0 -4.109375 -1.5q-1.5625 -1.515625 -1.5625 -3.765625q0 -1.671875 0.84375 -2.796875q0.859375 -1.140625 2.4375 -1.546875zm-0.421875 -3.578125q0 1.21875 0.78125 2.0q0.78125 0.765625 2.03125 0.765625q1.21875 0 2.0 -0.765625q0.78125 -0.765625 0.78125 -1.890625q0 -1.15625 -0.8125 -1.9375q-0.796875 -0.796875 -1.984375 -0.796875q-1.203125 0 -2.0 0.78125q-0.796875 0.765625 -0.796875 1.84375zm-0.6875 7.9375q0 0.890625 0.421875 1.734375q0.4375 0.84375 1.28125 1.3125q0.84375 0.46875 1.8125 0.46875q1.515625 0 2.5 -0.96875q0.984375 -0.984375 0.984375 -2.484375q0 -1.515625 -1.015625 -2.515625q-1.015625 -1.0 -2.53125 -1.0q-1.5 0 -2.484375 0.984375q-0.96875 0.984375 -0.96875 2.46875zm17.972656 4.953125l0 -4.109375l-7.453125 0l0 -1.9375l7.828125 -11.140625l1.734375 0l0 11.140625l2.3125 0l0 1.9375l-2.3125 0l0 4.109375l-2.109375 0zm0 -6.046875l0 -7.75l-5.390625 7.75l5.390625 0zm17.519531 -6.921875l-2.09375 0.15625q-0.28125 -1.234375 -0.796875 -1.796875q-0.859375 -0.90625 -2.109375 -0.90625q-1.0 0 -1.765625 0.5625q-1.0 0.71875 -1.578125 2.125q-0.5625 1.390625 -0.59375 3.96875q0.765625 -1.15625 1.859375 -1.71875q1.109375 -0.5625 2.3125 -0.5625q2.109375 0 3.59375 1.546875q1.484375 1.546875 1.484375 4.015625q0 1.609375 -0.703125 3.0q-0.6875 1.390625 -1.90625 2.140625q-1.21875 0.734375 -2.765625 0.734375q-2.640625 0 -4.3125 -1.9375q-1.65625 -1.953125 -1.65625 -6.40625q0 -4.96875 1.84375 -7.234375q1.59375 -1.96875 4.3125 -1.96875q2.03125 0 3.328125 1.140625q1.296875 1.125 1.546875 3.140625zm-8.609375 7.40625q0 1.078125 0.453125 2.078125q0.46875 1.0 1.296875 1.53125q0.84375 0.515625 1.75 0.515625q1.34375 0 2.296875 -1.078125q0.96875 -1.078125 0.96875 -2.9375q0 -1.78125 -0.953125 -2.796875q-0.953125 -1.03125 -2.390625 -1.03125q-1.421875 0 -2.421875 1.03125q-1.0 1.015625 -1.0 2.6875z" fill-rule="nonzero"></path><path fill="#cc0000" d="m23.015749 94.27055l0 0c0 -5.8592606 4.7498703 -10.6091385 10.609137 -10.6091385l57.269913 0c2.8137207 0 5.5121994 1.1177444 7.501793 3.1073456c1.9896011 1.9896011 3.1073456 4.688072 3.1073456 7.501793l0 42.435272c0 5.859268 -4.7498703 10.609131 -10.6091385 10.609131l-57.269913 0l0 0c-5.8592663 0 -10.609137 -4.7498627 -10.609137 -10.609131z" fill-rule="nonzero"></path><path stroke="#000000" stroke-width="1.0" stroke-linejoin="round" stroke-linecap="butt" d="m23.015749 94.27055l0 0c0 -5.8592606 4.7498703 -10.6091385 10.609137 -10.6091385l57.269913 0c2.8137207 0 5.5121994 1.1177444 7.501793 3.1073456c1.9896011 1.9896011 3.1073456 4.688072 3.1073456 7.501793l0 42.435272c0 5.859268 -4.7498703 10.609131 -10.6091385 10.609131l-57.269913 0l0 0c-5.8592663 0 -10.609137 -4.7498627 -10.609137 -10.609131z" fill-rule="nonzero"></path><path fill="#ffffff" d="m60.66393 122.30694l0 -5.03125l-5.062504 0l0 -3.453125l5.062504 0l0 -5.03125l3.3749962 0l0 5.03125l5.078125 0l0 3.453125l-5.078125 0l0 5.03125l-3.3749962 0z" fill-rule="nonzero"></path><path fill="#cc0000" d="m109.45145 94.27055l0 0c0 -5.8592606 4.7498703 -10.6091385 10.609131 -10.6091385l57.269913 0c2.8137207 0 5.512207 1.1177444 7.5018005 3.1073456c1.9895935 1.9896011 3.1073456 4.688072 3.1073456 7.501793l0 42.435272c0 5.859268 -4.749878 10.609131 -10.609146 10.609131l-57.269913 0l0 0c-5.8592606 0 -10.609131 -4.7498627 -10.609131 -10.609131z" fill-rule="nonzero"></path><path stroke="#000000" stroke-width="1.0" stroke-linejoin="round" stroke-linecap="butt" d="m109.45145 94.27055l0 0c0 -5.8592606 4.7498703 -10.6091385 10.609131 -10.6091385l57.269913 0c2.8137207 0 5.512207 1.1177444 7.5018005 3.1073456c1.9895935 1.9896011 3.1073456 4.688072 3.1073456 7.501793l0 42.435272c0 5.859268 -4.749878 10.609131 -10.609146 10.609131l-57.269913 0l0 0c-5.8592606 0 -10.609131 -4.7498627 -10.609131 -10.609131z" fill-rule="nonzero"></path><path fill="#ffffff" d="m145.7728 119.93194l0 -3.703125l7.28125 0l0 3.703125l-7.28125 0z" fill-rule="nonzero"></path><path fill="#cc0000" d="m195.88715 94.27055l0 0c0 -5.8592606 4.7498627 -10.6091385 10.609131 -10.6091385l57.269928 0c2.8136902 0 5.5121765 1.1177444 7.50177 3.1073456c1.9895935 1.9896011 3.1073608 4.688072 3.1073608 7.501793l0 42.435272c0 5.859268 -4.749878 10.609131 -10.609131 10.609131l-57.269928 0l0 0c-5.859268 0 -10.609131 -4.7498627 -10.609131 -10.609131z" fill-rule="nonzero"></path><path stroke="#000000" stroke-width="1.0" stroke-linejoin="round" stroke-linecap="butt" d="m195.88715 94.27055l0 0c0 -5.8592606 4.7498627 -10.6091385 10.609131 -10.6091385l57.269928 0c2.8136902 0 5.5121765 1.1177444 7.50177 3.1073456c1.9895935 1.9896011 3.1073608 4.688072 3.1073608 7.501793l0 42.435272c0 5.859268 -4.749878 10.609131 -10.609131 10.609131l-57.269928 0l0 0c-5.859268 0 -10.609131 -4.7498627 -10.609131 -10.609131z" fill-rule="nonzero"></path><path fill="#ffffff" d="m227.87502 125.08819l5.046875 -7.21875l-4.828125 -6.78125l4.515625 0l2.484375 3.84375l2.609375 -3.84375l4.34375 0l-4.75 6.625l5.1875 7.375l-4.546875 0l-2.84375 -4.34375l-2.875 4.34375l-4.34375 0z" fill-rule="nonzero"></path><path fill="#cc0000" d="m282.32285 92.653755l0 0c0 -5.8592606 4.7498474 -10.6091385 10.609131 -10.6091385l57.269897 0c2.8137207 0 5.512207 1.1177444 7.5018005 3.1073456c1.9895935 1.9896011 3.1073608 4.688072 3.1073608 7.501793l0 42.435265c0 5.859268 -4.749878 10.609146 -10.609161 10.609146l-57.269897 0l0 0c-5.8592834 0 -10.609131 -4.749878 -10.609131 -10.609146z" fill-rule="nonzero"></path><path stroke="#000000" stroke-width="1.0" stroke-linejoin="round" stroke-linecap="butt" d="m282.32285 92.653755l0 0c0 -5.8592606 4.7498474 -10.6091385 10.609131 -10.6091385l57.269897 0c2.8137207 0 5.512207 1.1177444 7.5018005 3.1073456c1.9895935 1.9896011 3.1073608 4.688072 3.1073608 7.501793l0 42.435265c0 5.859268 -4.749878 10.609146 -10.609161 10.609146l-57.269897 0l0 0c-5.8592834 0 -10.609131 -4.749878 -10.609131 -10.609146z" fill-rule="nonzero"></path><path fill="#ffffff" d="m319.79895 110.53389l0 -3.703125l3.703125 0l0 3.703125l-3.703125 0zm-4.90625 5.125l0 -3.453125l13.515625 0l0 3.453125l-13.515625 0zm4.90625 5.375l0 -3.703125l3.703125 0l0 3.703125l-3.703125 0z" fill-rule="nonzero"></path></g></svg>

